<svg xmlns="http://www.w3.org/2000/svg"><symbol id="check" viewBox="0 0 7 7"><path d="M5.8 1L2.9 5.2 1 3.3" stroke="#4DC7A0" stroke-width="1.8" stroke-linecap="round" stroke-linejoin="round" fill="none"/></symbol><symbol id="info" viewBox="0 0 4 7"><path d="M2.42 4.27h-.86a2.29 2.29 0 01-.03-.33c0-.45.2-.84.63-1.16l.38-.28a.76.76 0 00.35-.64c0-.2-.07-.36-.21-.5-.14-.14-.34-.22-.6-.22-.26 0-.46.1-.6.28a.99.99 0 00-.2.63c0 .1 0 .19.02.25l-1-.04A1.66 1.66 0 01.75.71c.32-.33.77-.5 1.34-.5.58 0 1.05.16 1.38.47.34.31.5.69.5 1.12 0 .57-.26 1.04-.79 1.42l-.32.23c-.3.2-.44.46-.44.77v.05zm-.86 1.61a.61.61 0 01-.18-.45c0-.17.06-.32.18-.45a.6.6 0 01.45-.19.6.6 0 01.45.2c.12.12.19.27.19.44a.6.6 0 01-.2.45.61.61 0 01-.44.18.61.61 0 01-.45-.18z"/></symbol><symbol id="duration" viewBox="0 0 14 14"><path d="M6.92 13a5.92 5.92 0 100-11.83 5.92 5.92 0 000 11.83z" stroke-width="1.2" stroke-linecap="round" stroke-linejoin="round"/><path d="M6.92 3.53v3.55l2.36 1.19" stroke-width="1.2" stroke-linecap="round" stroke-linejoin="round"/></symbol><symbol id="refund" viewBox="0 0 12 14"><path d="M8.78 13.22L11 11 8.78 8.78" stroke-width="1.1" stroke-linecap="round" stroke-linejoin="round"/><path d="M1 7.67v1.1A2.22 2.22 0 003.22 11H11M3.22 1L1 3.22l2.22 2.22" stroke-width="1.1" stroke-linecap="round" stroke-linejoin="round"/><path d="M11 6.56V5.44a2.22 2.22 0 00-2.22-2.22H1" stroke-width="1.1" stroke-linecap="round" stroke-linejoin="round"/></symbol><symbol id="refund-2" viewBox="0 0 15 16"><path d="M7.1 13.07L1.28 8.54 0 9.54l7.11 5.53 7.11-5.53-1.28-1-5.84 4.53zm.01-2l5.82-4.53 1.3-1L7.1 0 0 5.53l1.29 1 5.82 4.53z" fill="#B0B3C2"/></symbol><symbol id="fare" viewBox="0 0 13 14"><path d="M6.5 4.67c3.04 0 5.5-.82 5.5-1.84C12 1.83 9.54 1 6.5 1S1 1.82 1 2.83c0 1.02 2.46 1.84 5.5 1.84zM12 7.11c0 1.02-2.44 1.83-5.5 1.83S1 8.13 1 7.11" stroke-width="1.1" stroke-linecap="round" stroke-linejoin="round"/><path d="M1 2.83v8.56c0 1.01 2.44 1.83 5.5 1.83S12 12.4 12 11.4V2.83" stroke-width="1.1" stroke-linecap="round" stroke-linejoin="round"/></symbol><symbol id="whatsapp" viewBox="0 0 17 17"><path fill-rule="evenodd" clip-rule="evenodd" d="M0 16.8l1.44-4.33a8.25 8.25 0 113.26 3.1L0 16.8z"/><path fill-rule="evenodd" clip-rule="evenodd" d="M13.81 11c-.38-.72-1.79-1.54-1.79-1.54-.32-.18-.7-.2-.88.12 0 0-.46.55-.57.63-.53.36-1.03.35-1.52-.15L7.9 8.9 6.74 7.75c-.5-.5-.5-.99-.15-1.52.08-.11.63-.57.63-.57.32-.18.3-.56.12-.88 0 0-.82-1.4-1.54-1.79a.79.79 0 00-.93.14l-.51.51c-1.62 1.61-.82 3.44.8 5.06l1.47 1.48 1.48 1.47c1.61 1.62 3.44 2.42 5.06.8l.5-.51c.25-.25.3-.62.15-.93h-.01z" fill="#fff"/></symbol><symbol id="telegramm" viewBox="0 0 17 17"><path d="M8.6 16.8A8.4 8.4 0 108.6 0a8.4 8.4 0 000 16.8z"/><path fill-rule="evenodd" clip-rule="evenodd" d="M7.45 9.63l3.8 2.86 1.9-8.18-9.78 3.85 2.98.99 5.44-3.65-4.34 4.13z" fill="#fff"/><path fill-rule="evenodd" clip-rule="evenodd" d="M6.35 9.15l.81 2.93.29-2.45 4.34-4.13-5.44 3.65z" fill="#D2D2D7"/><path fill-rule="evenodd" clip-rule="evenodd" d="M8.68 10.56l-1.52 1.52.29-2.45 1.23.93z" fill="#B9B9BE"/></symbol></svg>